<svg width="22" height="19" viewBox="0 0 22 19" fill="none" xmlns="http://www.w3.org/2000/svg">
<path fill-rule="evenodd" clip-rule="evenodd" d="M1.5119 7.83802C7.4155 5.26859 11.3522 3.57465 13.3219 2.75629C18.9458 0.419577 20.1144 0.0136356 20.8761 0.000201679C21.0436 -0.00272217 21.4182 0.0387653 21.6608 0.235454C22.0207 0.527206 22.0228 1.1605 21.9828 1.57963C21.6781 4.77849 20.3594 12.5412 19.6885 16.1239C19.4045 17.6399 18.8456 18.1482 18.3045 18.1979C17.1285 18.306 16.2355 17.4215 15.0964 16.6757C13.3141 15.5085 12.3072 14.782 10.577 13.6431C8.57764 12.3269 9.87379 11.6035 11.0132 10.4213C11.3115 10.1119 16.493 5.40379 16.5933 4.97668C16.6059 4.92326 16.6175 4.72412 16.4991 4.61902C16.3806 4.51392 16.2059 4.54979 16.0798 4.5784C15.901 4.61894 13.0537 6.49897 7.53779 10.2184C6.72957 10.7729 5.99752 11.043 5.34166 11.0288C4.61855 11.0132 3.22771 10.6204 2.19372 10.2846C0.925492 9.87286 -0.0824753 9.65507 0.00533221 8.95572C0.0510554 8.59134 0.553219 8.21883 1.5119 7.83802Z" fill="white"/>
</svg>
