<svg width="120" height="20" viewBox="0 0 120 20" fill="none" xmlns="http://www.w3.org/2000/svg">
<g clip-path="url(#clip0_42_112)">
<path d="M0 0.280762H8.99952V3.04907H5.955V19.699H3.04452V3.04907H0V0.280762Z" fill="white"/>
<path d="M13.8438 8.46531H17.8457V11.2336H13.8438V16.9107H18.8797V19.699H10.9333V0.280762H18.8797V3.04907H13.8438V8.46531Z" fill="white"/>
<path d="M23.9348 5.63683V19.679H21.3115V0.280762H24.8922L27.9559 11.8956V0.280762H30.6366V19.699H27.5537L23.9348 5.63683Z" fill="white"/>
<path d="M35.9023 5.63683V19.679H33.2791V0.280762H36.9363L39.9234 11.8956V0.280762H42.5275V19.699H39.5213L35.9023 5.63683Z" fill="white"/>
<path d="M45.2656 0.280762H48.1953V19.699H45.2656V0.280762Z" fill="white"/>
<path d="M54.8779 0C57.7118 0 59.1671 1.7653 59.1671 4.87462V5.49649H56.4098V4.7342C56.4098 3.35005 55.8928 2.82849 54.9545 2.82849C54.0163 2.82849 53.4993 3.35005 53.4993 4.8345C53.4993 8.84654 59.2437 9.58877 59.2437 15.1254C59.2437 18.2347 57.7501 20.0201 54.8971 20.0201C52.044 20.0201 50.5122 18.0542 50.5122 15.0251V13.8415H53.2695V15.2257C53.2695 16.6098 53.8439 17.1113 54.7822 17.1113C55.7204 17.1113 56.2949 16.6098 56.2949 15.2257C56.2949 11.2136 50.5505 10.4915 50.5505 4.9348C50.5888 1.82548 52.044 0 54.8779 0Z" fill="white"/>
<path d="M60.6797 0.280762H69.6792V3.04907H66.6347V19.699H63.7242V3.04907H60.6797V0.280762Z" fill="white"/>
<path d="M72.7621 16.7505V19.6993H70.0239V16.7505H72.7621Z" fill="#A9D836"/>
<path d="M81.7043 19.699C81.4656 18.9296 81.3745 18.1183 81.4362 17.3119V14.2627C81.4362 12.4573 80.8618 11.7953 79.5214 11.7953H78.5066V19.699H75.6152V0.280762H80.0001C83.0255 0.280762 84.2509 1.74515 84.2509 4.73412V6.25869C84.3659 7.05269 84.2436 7.86451 83.9008 8.5828C83.558 9.3011 83.0114 9.89069 82.3362 10.2707C83.7914 10.9127 84.2509 12.2767 84.2509 14.4031V17.3319C84.2024 18.136 84.3132 18.942 84.5765 19.699H81.7043ZM78.5066 3.04907V9.06712H79.6363C80.7277 9.06712 81.3979 8.56562 81.3979 7.0611V5.05508C81.3979 3.65087 80.9384 3.04907 79.9044 3.04907H78.5066Z" fill="#A9D836"/>
<path d="M89.6889 0.280762V15.2457C89.6889 16.6499 90.2825 17.1313 91.2016 17.1313C92.1207 17.1313 92.7143 16.6499 92.7143 15.2457V0.280762H95.4716V15.0651C95.5284 15.699 95.4583 16.3384 95.2658 16.9423C95.0732 17.5462 94.7624 18.1013 94.3532 18.5721C93.9441 19.0429 93.4456 19.4191 92.8897 19.6764C92.3338 19.9338 91.7328 20.0667 91.125 20.0667C90.5173 20.0667 89.9162 19.9338 89.3603 19.6764C88.8044 19.4191 88.3059 19.0429 87.8968 18.5721C87.4876 18.1013 87.1768 17.5462 86.9842 16.9423C86.7917 16.3384 86.7216 15.699 86.7784 15.0651V0.280762H89.6889Z" fill="#A9D836"/>
<path d="M117.511 7.56269C118.214 7.55205 118.914 7.45783 119.598 7.28185C119.029 5.19053 117.827 3.34948 116.173 2.03609C114.519 0.722699 112.502 0.00811466 110.426 0C109.996 0.0209519 109.568 0.0678367 109.143 0.140421C109.499 2.20287 110.528 4.07147 112.055 5.42572C113.581 6.77998 115.51 7.5355 117.511 7.56269Z" fill="white"/>
<path d="M109.832 20.0602C109.851 19.6793 109.851 19.2976 109.832 18.9167C109.832 16.5226 108.925 14.2265 107.309 12.5336C105.693 10.8407 103.501 9.88965 101.216 9.88965H100.775C100.775 9.88965 100.775 9.88965 100.775 10.0501C100.777 12.6156 101.716 15.083 103.401 16.9449C105.086 18.8068 107.387 19.9216 109.832 20.0602Z" fill="white"/>
<path d="M107.228 0.64209C105.714 1.20431 104.359 2.15682 103.288 3.41186C102.217 4.66689 101.465 6.18408 101.101 7.82363H101.312C104.105 7.82363 106.783 8.98605 108.758 11.0552C110.734 13.1243 111.843 15.9306 111.843 18.8567C111.843 19.2178 111.843 19.5588 111.843 19.9199C114.107 19.5651 116.174 18.3724 117.67 16.5582C119.167 14.7439 119.993 12.428 120 10.0303C120 9.76947 120 9.52875 120 9.26797C119.211 9.47147 118.4 9.57253 117.587 9.56887C115.141 9.57023 112.769 8.68053 110.88 7.05208C108.99 5.42362 107.699 3.15767 107.228 0.64209Z" fill="white"/>
</g>
<defs>
<clipPath id="clip0_42_112">
<rect width="120" height="20" fill="white"/>
</clipPath>
</defs>
</svg>
