<svg width="16" height="16" viewBox="0 0 16 16" fill="none" xmlns="http://www.w3.org/2000/svg">
<g clip-path="url(#clip0_45_514)">
<path d="M7.6776 9.84029C6.30562 8.71215 5.38954 7.32007 4.90793 6.52798L4.54868 5.85071C4.67429 5.71594 5.63219 4.69021 6.04731 4.13367C6.56896 3.43483 5.81263 2.80366 5.81263 2.80366C5.81263 2.80366 3.68447 0.675208 3.19946 0.253004C2.71445 -0.16979 2.15614 0.0650299 2.15614 0.0650299C1.13677 0.723679 0.0800008 1.29632 0.0166037 4.05032C0.0142392 6.62877 1.97157 9.28819 4.0882 11.347C6.20824 13.6722 9.11903 16.0027 11.9332 16C14.6869 15.9372 15.2594 14.8806 15.918 13.8612C15.918 13.8612 16.153 13.3033 15.7307 12.8179C15.308 12.3326 13.1793 10.204 13.1793 10.204C13.1793 10.204 12.5485 9.4475 11.8495 9.9696C11.3286 10.359 10.3932 11.2251 10.1678 11.4351C10.1683 11.4359 8.60343 10.6016 7.6776 9.84029Z" fill="white"/>
</g>
<defs>
<clipPath id="clip0_45_514">
<rect width="16" height="16" fill="white"/>
</clipPath>
</defs>
</svg>
