<svg width="24" height="24" viewBox="0 0 24 24" fill="none" xmlns="http://www.w3.org/2000/svg">
<circle cx="12" cy="12" r="12" fill="#FF6031"/>
<g clip-path="url(#clip0_42_163)">
<path d="M11.7775 13.2077C10.8772 12.4673 10.276 11.5538 9.95993 11.034L9.72418 10.5895C9.80661 10.5011 10.4352 9.82795 10.7076 9.46272C11.05 9.0041 10.5536 8.5899 10.5536 8.5899C10.5536 8.5899 9.15704 7.19311 8.83875 6.91603C8.52046 6.63858 8.15407 6.79268 8.15407 6.79268C7.48511 7.22491 6.79161 7.60071 6.75 9.40803C6.74845 11.1001 8.03295 12.8454 9.42199 14.1965C10.8133 15.7224 12.7235 17.2517 14.5703 17.25C16.3774 17.2088 16.7531 16.5154 17.1853 15.8464C17.1853 15.8464 17.3395 15.4803 17.0623 15.1617C16.785 14.8433 15.388 13.4464 15.388 13.4464C15.388 13.4464 14.9741 12.9499 14.5154 13.2925C14.1735 13.5481 13.5596 14.1165 13.4117 14.2543C13.412 14.2548 12.3851 13.7073 11.7775 13.2077Z" fill="white"/>
</g>
<defs>
<clipPath id="clip0_42_163">
<rect width="12" height="12" fill="white" transform="translate(6 6)"/>
</clipPath>
</defs>
</svg>
