<svg width="24" height="24" viewBox="0 0 24 24" fill="none" xmlns="http://www.w3.org/2000/svg">
<path d="M20.9886 13.3313C20.9988 13.2876 21.0047 13.2422 21.0047 13.1954V9.60942C21.0047 6.63525 18.5592 4.19067 15.586 4.19067H14.8855C14.9519 4.00361 14.9883 3.80252 14.9883 3.59302C14.9883 2.60437 14.184 1.80005 13.1954 1.80005C12.7365 1.80005 12.3175 1.97353 12 2.25805C11.6826 1.97353 11.2636 1.80005 10.8047 1.80005C9.81609 1.80005 9.01177 2.60437 9.01177 3.59302C9.01177 3.80252 9.04822 4.00361 9.11456 4.19067H8.41411C5.43993 4.19067 2.99536 6.63624 2.99536 9.60942V13.1954C2.99536 13.2422 3.0013 13.2876 3.0115 13.3313C2.21658 14.1984 1.80005 15.1734 1.80005 16.1836C1.80005 17.8464 2.90966 19.389 4.92444 20.5274C6.83351 21.606 9.34634 22.2 12 22.2C14.6538 22.2 17.1666 21.606 19.0757 20.5274C21.0904 19.389 22.2 17.8464 22.2 16.1836C22.2 15.1734 21.7835 14.1984 20.9886 13.3313ZM13.1954 2.99536C13.5249 2.99536 13.793 3.26347 13.793 3.59302C13.793 3.92257 13.5249 4.19067 13.1954 4.19067C12.8658 4.19067 12.5977 3.92257 12.5977 3.59302C12.5977 3.26347 12.8658 2.99536 13.1954 2.99536ZM10.8047 2.99536C11.1343 2.99536 11.4024 3.26347 11.4024 3.59302C11.4024 3.92257 11.1343 4.19067 10.8047 4.19067C10.4752 4.19067 10.2071 3.92257 10.2071 3.59302C10.2071 3.26347 10.4752 2.99536 10.8047 2.99536ZM4.19067 9.60942C4.19067 7.2806 6.08528 5.38599 8.41411 5.38599H15.586C17.9148 5.38599 19.8094 7.2806 19.8094 9.60942V12.0733C19.6069 11.76 19.467 11.4243 19.3974 11.076L19.179 9.98415C18.7879 8.02878 17.0295 6.5813 15.0369 6.5813H8.96324C6.9687 6.5813 5.21183 8.03065 4.82112 9.98415L4.60274 11.076C4.53305 11.4243 4.39324 11.76 4.19067 12.0732V9.60942ZM16.4427 20.3548C17.0332 19.677 17.379 18.858 17.379 17.9766C17.379 17.6465 17.1114 17.379 16.7813 17.379C16.4512 17.379 16.1836 17.6465 16.1836 17.9766C16.1836 18.746 15.77 19.4847 15.0188 20.0567C14.216 20.6681 13.1439 21.0047 12 21.0047C10.8562 21.0047 9.7841 20.6681 8.98129 20.0567C8.23011 19.4847 7.81645 18.746 7.81645 17.9766C7.81645 17.6465 7.54886 17.379 7.2188 17.379C6.88873 17.379 6.62114 17.6465 6.62114 17.9766C6.62114 18.858 6.96695 19.677 7.55735 20.3548C4.85618 19.5116 2.99536 17.9392 2.99536 16.1836C2.99536 15.103 3.71339 14.2518 4.3157 13.728C5.08831 13.0562 5.59286 12.2202 5.77482 11.3104L5.99321 10.2186C6.27167 8.82649 7.54855 7.77665 8.96324 7.77665H15.0369C16.4516 7.77665 17.7284 8.82649 18.0069 10.2186L18.2253 11.3104C18.4072 12.2202 18.9118 13.0562 19.6844 13.728C20.2867 14.2518 21.0047 15.103 21.0047 16.1836C21.0047 17.9392 19.1439 19.5116 16.4427 20.3548Z" fill="#111111"/>
</svg>
