<svg width="24" height="24" viewBox="0 0 24 24" fill="none" xmlns="http://www.w3.org/2000/svg">
<circle cx="12" cy="12" r="12" fill="#28A8EA"/>
<path fill-rule="evenodd" clip-rule="evenodd" d="M7.25595 11.419C10.2077 10.1343 12.1761 9.28729 13.1609 8.87811C15.9729 7.70976 16.5572 7.50679 16.938 7.50007C17.0218 7.49861 17.2091 7.51935 17.3304 7.6177C17.5104 7.76357 17.5114 8.08022 17.4914 8.28979C17.339 9.88921 16.6797 13.7705 16.3442 15.5619C16.2023 16.3199 15.9228 16.5741 15.6523 16.5989C15.0643 16.653 14.6177 16.2107 14.0482 15.8378C13.1571 15.2542 12.6536 14.891 11.7885 14.3215C10.7888 13.6634 11.4369 13.3017 12.0066 12.7106C12.1557 12.5559 14.7465 10.2019 14.7966 9.98831C14.8029 9.9616 14.8087 9.86203 14.7495 9.80948C14.6903 9.75693 14.603 9.77487 14.5399 9.78917C14.4505 9.80944 13.0268 10.7495 10.2689 12.6092C9.86478 12.8864 9.49876 13.0214 9.17083 13.0144C8.80928 13.0066 8.11386 12.8102 7.59686 12.6423C6.96275 12.4364 6.45876 12.3275 6.50267 11.9778C6.52553 11.7956 6.77661 11.6094 7.25595 11.419Z" fill="white"/>
</svg>
