<svg width="12" height="12" viewBox="0 0 12 12" fill="none" xmlns="http://www.w3.org/2000/svg">
<g clip-path="url(#clip0_42_152)">
<path fill-rule="evenodd" clip-rule="evenodd" d="M7.43256 6.70148C7.20545 6.7943 7.06038 7.14984 6.91319 7.33148C6.83772 7.42453 6.74772 7.43906 6.6317 7.39242C5.77928 7.05281 5.12584 6.48398 4.65545 5.69953C4.57577 5.57789 4.59006 5.4818 4.68616 5.36883C4.82819 5.20148 5.00678 5.01141 5.04522 4.78594C5.13053 4.28719 4.4785 2.74008 3.61741 3.44109C1.13959 5.46023 7.75084 10.8155 8.94405 7.91906C9.28155 7.09805 7.80897 6.54727 7.43256 6.70148ZM6.00006 10.9519C5.12373 10.9519 4.26147 10.7189 3.50655 10.2778C3.38538 10.2068 3.23889 10.188 3.10342 10.2248L1.46303 10.6751L2.03444 9.41625C2.11225 9.24492 2.09233 9.04547 1.98241 8.89313C1.37116 8.04586 1.04795 7.04555 1.04795 6C1.04795 3.2693 3.26936 1.04789 6.00006 1.04789C8.73077 1.04789 10.9519 3.2693 10.9519 6C10.9519 8.73047 8.73053 10.9519 6.00006 10.9519V10.9519ZM6.00006 0C2.69163 0 6.27264e-05 2.69156 6.27264e-05 6C6.27264e-05 7.16391 0.330531 8.28164 0.958422 9.25172L0.0469377 11.2591C-0.0372029 11.4445 -0.00649976 11.6616 0.125219 11.816C0.226469 11.9344 0.372953 12 0.524125 12C0.862094 12 2.70498 11.4209 3.17397 11.2922C4.04092 11.756 5.01334 12 6.00006 12C9.30827 12 12.0001 9.3082 12.0001 6C12.0001 2.69156 9.30827 0 6.00006 0Z" fill="white"/>
</g>
<defs>
<clipPath id="clip0_42_152">
<rect width="12" height="12" fill="white"/>
</clipPath>
</defs>
</svg>
